<svg width="709" height="308" viewBox="0 0 709 308" fill="none" xmlns="http://www.w3.org/2000/svg">
<g clip-path="url(#clip0_619_104)">
<path d="M201.213 71.8889V126.253H107.663V173.91H199.448V228.275H107.663V319H51.181V71.8889H201.213ZM281.535 117.781C275.416 123.9 268.003 126.959 259.295 126.959C250.587 126.959 243.056 123.9 236.702 117.781C230.583 111.427 227.523 103.896 227.523 95.1879C227.523 86.4802 230.583 79.0669 236.702 72.9479C243.056 66.5936 250.587 63.4165 259.295 63.4165C268.003 63.4165 275.416 66.5936 281.535 72.9479C287.889 79.0669 291.066 86.4802 291.066 95.1879C291.066 103.896 287.889 111.427 281.535 117.781ZM285.771 319H232.819V142.492H285.771V319ZM429.013 229.334L492.203 319H431.484L398.653 272.402L365.823 319H305.104L368.294 229.334L307.222 142.492H367.941L398.653 186.266L429.366 142.492H490.084L429.013 229.334ZM560.431 117.781C554.312 123.9 546.899 126.959 538.191 126.959C529.483 126.959 521.952 123.9 515.598 117.781C509.479 111.427 506.42 103.896 506.42 95.1879C506.42 86.4802 509.479 79.0669 515.598 72.9479C521.952 66.5936 529.483 63.4165 538.191 63.4165C546.899 63.4165 554.312 66.5936 560.431 72.9479C566.785 79.0669 569.963 86.4802 569.963 95.1879C569.963 103.896 566.785 111.427 560.431 117.781ZM564.667 319H511.715V142.492H564.667V319ZM706.85 142.492V193.326H670.489V255.81C670.489 262.635 673.196 267.107 678.609 269.225C684.022 271.108 693.435 271.696 706.85 270.99V319C673.431 322.53 650.132 319.353 636.953 309.469C624.009 299.349 617.537 281.463 617.537 255.81V193.326H589.296V142.492H617.537V108.956L670.489 93.0698V142.492H706.85Z" fill="white"/>
<path d="M211.213 61.8889V116.253H117.663V163.91H209.448V218.275H117.663V309H61.181V61.8889H211.213ZM291.535 107.781C285.416 113.9 278.003 116.959 269.295 116.959C260.587 116.959 253.056 113.9 246.702 107.781C240.583 101.427 237.523 93.8957 237.523 85.1879C237.523 76.4802 240.583 69.0669 246.702 62.9479C253.056 56.5936 260.587 53.4165 269.295 53.4165C278.003 53.4165 285.416 56.5936 291.535 62.9479C297.889 69.0669 301.066 76.4802 301.066 85.1879C301.066 93.8957 297.889 101.427 291.535 107.781ZM295.771 309H242.819V132.492H295.771V309ZM439.013 219.334L502.203 309H441.484L408.653 262.402L375.823 309H315.104L378.294 219.334L317.222 132.492H377.941L408.653 176.266L439.366 132.492H500.084L439.013 219.334ZM570.431 107.781C564.312 113.9 556.899 116.959 548.191 116.959C539.483 116.959 531.952 113.9 525.598 107.781C519.479 101.427 516.42 93.8957 516.42 85.1879C516.42 76.4802 519.479 69.0669 525.598 62.9479C531.952 56.5936 539.483 53.4165 548.191 53.4165C556.899 53.4165 564.312 56.5936 570.431 62.9479C576.785 69.0669 579.963 76.4802 579.963 85.1879C579.963 93.8957 576.785 101.427 570.431 107.781ZM574.667 309H521.715V132.492H574.667V309ZM716.85 132.492V183.326H680.489V245.81C680.489 252.635 683.196 257.107 688.609 259.225C694.022 261.108 703.435 261.696 716.85 260.99V309C683.431 312.53 660.132 309.353 646.953 299.469C634.009 289.349 627.537 271.463 627.537 245.81V183.326H599.296V132.492H627.537V98.9555L680.489 83.0698V132.492H716.85Z" fill="#F91155"/>
</g>
<defs>
<clipPath id="clip0_619_104">
<rect width="709" height="308" fill="white"/>
</clipPath>
</defs>
</svg>
