<svg width="75" height="75" viewBox="0 0 75 75" fill="none" xmlns="http://www.w3.org/2000/svg">
<g filter="url(#filter0_d_147_80)">
<rect x="13.4317" y="9.29877" width="48.1366" height="48.1366" rx="24" fill="white"/>
<path d="M47.3399 23.7062C47.3495 23.7062 47.3623 23.7062 47.375 23.7062C47.7091 23.7062 48.0191 23.8101 48.2732 23.9891L48.2684 23.9859C48.4538 24.1473 48.5785 24.3742 48.6088 24.6299V24.6347C48.6408 24.8297 48.6584 25.0535 48.6584 25.282C48.6584 25.3859 48.6552 25.4882 48.6472 25.5904V25.5761C48.2876 29.3621 46.7278 38.5435 45.9351 42.7819C45.5995 44.5766 44.9394 45.1775 44.3002 45.235C42.9114 45.3645 41.8566 44.3177 40.5109 43.4355C38.4046 42.0531 37.2139 41.1933 35.1699 39.846C32.8062 38.291 34.3388 37.4328 35.6845 36.036C36.0377 35.6684 42.1602 30.0988 42.2801 29.5938C42.2865 29.5635 42.2897 29.5299 42.2897 29.4947C42.2897 29.3701 42.2433 29.2566 42.1682 29.1703C42.0851 29.116 41.9812 29.0856 41.8726 29.0856C41.8007 29.0856 41.7319 29.1 41.668 29.124L41.6712 29.1224C41.4602 29.1703 38.0956 31.3939 31.5772 35.7931C30.866 36.3541 29.9679 36.7088 28.9898 36.7504H28.9802C27.5946 36.5826 26.3368 36.2741 25.143 35.8347L25.2613 35.873C23.7622 35.384 22.5716 35.1267 22.6739 34.2988C22.7282 33.8684 23.3216 33.4278 24.4542 32.9771C31.4307 29.9374 36.083 27.9339 38.411 26.9665C40.9792 25.6032 43.9566 24.4813 47.0874 23.7541L47.3383 23.7046L47.3399 23.7062ZM37.4441 9.29877C24.1761 9.33074 13.4317 20.0944 13.4317 33.3671C13.4317 46.659 24.2065 57.4354 37.5 57.4354C50.7935 57.4354 61.5683 46.6606 61.5683 33.3671C61.5683 20.0944 50.8239 9.33074 37.5591 9.29877H37.5559C37.5186 9.29877 37.4814 9.29877 37.4441 9.29877Z" fill="#F91155"/>
</g>
<defs>
<filter id="filter0_d_147_80" x="0.000122418" y="4.78195e-07" width="74.9998" height="74.9998" filterUnits="userSpaceOnUse" color-interpolation-filters="sRGB">
<feFlood flood-opacity="0" result="BackgroundImageFix"/>
<feColorMatrix in="SourceAlpha" type="matrix" values="0 0 0 0 0 0 0 0 0 0 0 0 0 0 0 0 0 0 127 0" result="hardAlpha"/>
<feOffset dy="4.12106"/>
<feGaussianBlur stdDeviation="6.69672"/>
<feColorMatrix type="matrix" values="0 0 0 0 0 0 0 0 0 0 0 0 0 0 0 0 0 0 0.0442991 0"/>
<feBlend mode="normal" in2="BackgroundImageFix" result="effect1_dropShadow_147_80"/>
<feBlend mode="normal" in="SourceGraphic" in2="effect1_dropShadow_147_80" result="shape"/>
</filter>
</defs>
</svg>
